<mxfile host="app.diagrams.net" modified="2024-06-07T06:25:35.223Z" agent="Mozilla/5.0 (X11; Linux x86_64; rv:109.0) Gecko/20100101 Firefox/115.0" version="24.4.15" etag="Mm_zl4w1lGt6AOBCX-Th" type="github">
  <diagram name="Page-1" id="cS0eeF5j1m5D2ZwRGN6W">
    <mxGraphModel>
      <root>
        <mxCell id="0" />
        <mxCell id="1" parent="0" />
      </root>
    </mxGraphModel>
  </diagram>
</mxfile>
